<svg width="198" height="53" viewBox="0 0 198 53" fill="none" xmlns="http://www.w3.org/2000/svg">
<g clip-path="url(#clip0_509_30)">
<path d="M11.8 52.9002C10.5 52.9002 9.3 52.7002 8.1 52.4002C6.9 52.1002 5.8 51.6002 4.8 50.9002C3.8 50.2002 2.9 49.5002 2.1 48.6002C1.3 47.7002 0.6 46.7002 0 45.6002L3.9 41.5002C4.7 42.6002 5.4 43.6002 6.1 44.3002C6.8 45.0002 7.4 45.6002 8 45.9002C8.6 46.3002 9.2 46.5002 9.8 46.7002C10.4 46.8002 11.1 46.9002 11.8 46.9002C13.2 46.9002 14.4 46.6002 15.4 46.0002C16.4 45.4002 17.2 44.5002 17.8 43.4002C18.4 42.3002 18.7 41.0002 18.7 39.6002V17.9002H11.3V12.2002H31.1V17.9002H24.9V40.1002C24.9 41.9002 24.6 43.6002 24 45.2002C23.4 46.8002 22.5 48.1002 21.3 49.2002C20.1 50.3002 18.8 51.2002 17.2 51.9002C15.6 52.6002 13.8 52.9002 11.8 52.9002Z" fill="black"/>
<path d="M31.1001 52.4002L46.7001 12.2002H53.0001L68.5001 52.4002H61.9001L52.7001 28.2002C52.6001 27.9002 52.4001 27.3002 52.0001 26.2002C51.7001 25.2002 51.3001 24.0002 50.9001 22.8002C50.5001 21.5002 50.1001 20.4002 49.8001 19.3002C49.5001 18.2002 49.2001 17.6002 49.1001 17.3002L50.4001 17.2002C50.2001 17.9002 49.9001 18.7002 49.6001 19.7002C49.3001 20.7002 48.9001 21.7002 48.6001 22.9002C48.2001 24.0002 47.9001 25.1002 47.5001 26.0002C47.2001 27.0002 46.9001 27.8002 46.6001 28.4002L37.5001 52.4002H31.1001ZM38.0001 42.4002L40.3001 36.4002H58.6001L61.2001 42.4002H38.0001Z" fill="black"/>
<path d="M81.6998 52.4002V32.4002L82.0998 35.2002L65.7998 12.2002H73.2998L85.7998 30.0002L84.3998 29.8002L95.5998 12.2002H102.7L87.0998 35.8002L87.9998 31.9002V52.4002H81.6998Z" fill="black"/>
<path d="M112.5 52.1002H106.5L113.4 27.4002C113.6 27.0002 113.7 26.6002 113.7 26.1002C113.7 25.6002 113.7 25.1002 113.6 24.7002C113.5 24.3002 113.2 24.1002 112.6 24.1002C111.8 24.1002 111.1 24.5002 110.4 25.3002C109.7 26.1002 109.1 27.5002 108.4 29.5002L107.5 31.9002H106.4L107.8 27.6002C108.4 26.0002 109.1 24.8002 109.9 24.0002C110.7 23.2002 111.6 22.6002 112.5 22.2002C113.4 21.8002 114.3 21.7002 115.1 21.7002C116.3 21.7002 117.2 21.9002 117.7 22.4002C118.3 22.9002 118.6 23.6002 118.7 24.4002C118.8 25.2002 118.8 26.1002 118.6 27.0002C118.4 27.9002 118.3 28.8002 118 29.7002L112.5 52.1002ZM128 28.4002C128.2 27.6002 128.4 26.9002 128.5 26.3002C128.6 25.6002 128.6 25.1002 128.4 24.7002C128.2 24.3002 127.8 24.1002 127.2 24.1002C126.2 24.1002 125.1 24.7002 123.9 25.9002C122.7 27.1002 121.5 28.8002 120.3 31.1002C119.1 33.3002 117.9 35.9002 116.7 38.9002C115.5 41.8002 114.5 45.0002 113.5 48.5002L114.9 41.0002C116.6 36.3002 118.3 32.5002 119.8 29.7002C121.3 26.9002 122.9 24.9002 124.5 23.7002C126.1 22.5002 127.9 21.9002 129.8 21.9002C131.1 21.9002 132 22.2002 132.6 22.7002C133.2 23.2002 133.6 23.9002 133.7 24.8002C133.9 25.7002 133.9 26.6002 133.7 27.6002C133.5 28.6002 133.3 29.6002 133.1 30.6002L127.2 52.3002H121L128 28.4002ZM142.7 28.4002C143 27.3002 143.2 26.3002 143.2 25.4002C143.2 24.5002 142.8 24.1002 142.1 24.1002C141.1 24.1002 140 24.7002 138.8 25.9002C137.7 27.1002 136.5 28.8002 135.2 31.1002C134 33.4002 132.7 36.1002 131.4 39.2002C130.1 42.3002 128.9 45.9002 127.7 49.8002L128.6 43.8002C130.1 39.7002 131.4 36.2002 132.7 33.4002C134 30.6002 135.2 28.3002 136.5 26.6002C137.7 24.9002 139 23.7002 140.3 22.9002C141.6 22.1002 143.1 21.8002 144.6 21.8002C146.2 21.8002 147.3 22.2002 148 23.1002C148.6 24.0002 148.9 25.1002 148.9 26.4002C148.8 27.7002 148.6 29.1002 148.1 30.5002L142.5 47.3002C142.1 48.4002 142 49.3002 142.2 49.8002C142.4 50.3002 142.8 50.6002 143.4 50.6002C144.1 50.6002 144.7 50.2002 145.4 49.5002C146.1 48.8002 146.8 47.3002 147.6 45.2002L148.4 42.8002H149.5L148 47.0002C147.5 48.6002 146.8 49.8002 146 50.7002C145.2 51.5002 144.3 52.1002 143.4 52.5002C142.5 52.8002 141.6 53.0002 140.8 53.0002C139.8 53.0002 138.9 52.8002 138.3 52.5002C137.7 52.2002 137.2 51.8002 136.9 51.2002C136.4 50.5002 136.2 49.5002 136.4 48.4002C136.5 47.3002 136.8 46.0002 137.3 44.5002L142.7 28.4002Z" fill="black"/>
<path d="M158 39.3C160 38.6 161.7 37.9 163.4 37.2C165 36.5 166.4 35.7 167.4 34.8C168.8 33.6 169.9 32.2 170.8 30.6C171.6 29 172 27.2 172 25.2C172 24.2 171.9 23.6 171.8 23.3C171.6 23 171.4 22.9 171.1 22.9C170.2 22.9 169.2 23.3 168.1 24.2C167 25 166 26.2 165 27.7C164 29.2 163 30.8 162.2 32.7C161.3 34.6 160.6 36.5 160.1 38.6C159.6 40.7 159.3 42.7 159.3 44.8C159.3 46.8 159.7 48.2 160.4 49.1C161.1 49.9 162.1 50.4 163.4 50.4C164.7 50.4 166.1 50 167.6 49.2C169.1 48.4 170.6 47 172.1 45L173 45.5C172.2 46.8 171.2 48 170 49.2C168.8 50.4 167.4 51.4 165.8 52.1C164.2 52.8 162.6 53.2 160.8 53.2C159.2 53.2 157.8 52.9 156.6 52.3C155.4 51.7 154.4 50.8 153.8 49.6C153.1 48.4 152.8 46.9 152.8 45.1C152.8 43.3 153.1 41.4 153.7 39.3C154.3 37.2 155.2 35.2 156.4 33.1C157.6 31.1 159 29.2 160.6 27.5C162.2 25.8 164 24.4 166 23.5C168 22.5 170.1 22 172.3 22C173.7 22 174.8 22.3 175.7 23C176.6 23.7 177.1 24.7 177.1 26C177.1 27.5 176.7 29 175.8 30.3C174.9 31.6 173.8 32.8 172.3 33.9C170.8 35 169.3 35.9 167.6 36.8C165.9 37.6 164.2 38.4 162.5 39C160.8 39.6 159.3 40.1 157.9 40.5L158 39.3Z" fill="black"/>
<path d="M187.8 2.9C187.6 6 186.9 8.9 186.9 8.9C186.9 8.9 186.1 6.1 186 2.9C185.9 0.6 186.2 0 186.9 0C187.6 0 188 0.7 187.8 2.9Z" fill="black"/>
<path d="M187.8 17.6001C187.6 14.5001 186.9 11.6001 186.9 11.6001C186.9 11.6001 186.1 14.4001 186 17.6001C185.9 19.9001 186.2 20.5001 186.9 20.5001C187.6 20.5001 188 19.8001 187.8 17.6001Z" fill="black"/>
<path d="M179.6 9.3C182.7 9.5 185.6 10.2 185.6 10.2C185.6 10.2 182.8 11 179.6 11.1C177.3 11.2 176.7 10.9 176.7 10.2C176.6 9.5 177.3 9.2 179.6 9.3Z" fill="black"/>
<path d="M194.2 9.3C191.1 9.5 188.2 10.2 188.2 10.2C188.2 10.2 191 11 194.2 11.1C196.5 11.2 197.1 10.9 197.1 10.2C197.1 9.5 196.5 9.2 194.2 9.3Z" fill="black"/>
<path d="M182.4 4.40019C184.5 6.80019 186 9.30019 186 9.30019C186 9.30019 183.5 7.80019 181.1 5.70019C179.4 4.20019 179.2 3.50019 179.7 3.00019C180.2 2.50019 180.9 2.70019 182.4 4.40019Z" fill="black"/>
<path d="M192.7 14.8002C190.3 12.7002 187.8 11.2002 187.8 11.2002C187.8 11.2002 189.3 13.7002 191.4 16.1002C192.9 17.8002 193.6 18.0002 194.1 17.5002C194.7 17.0002 194.4 16.3002 192.7 14.8002Z" fill="black"/>
<path d="M181 14.8002C183.4 12.7002 185.9 11.2002 185.9 11.2002C185.9 11.2002 184.4 13.7002 182.3 16.1002C180.8 17.8002 180.1 18.0002 179.6 17.5002C179.1 17.0002 179.3 16.3002 181 14.8002Z" fill="black"/>
<path d="M191.4 4.40019C189.3 6.80019 187.8 9.30019 187.8 9.30019C187.8 9.30019 190.3 7.80019 192.7 5.70019C194.4 4.20019 194.6 3.50019 194.1 3.00019C193.6 2.50019 192.9 2.70019 191.4 4.40019Z" fill="black"/>
</g>
<defs>
<clipPath id="clip0_509_30">
<rect width="197.1" height="52.9" fill="white"/>
</clipPath>
</defs>
</svg>
